<?xml version="1.0" encoding="UTF-8" standalone="no"?>
<svg version="1.1" viewBox="0 0 200 200" xmlns="http://www.w3.org/2000/svg">
  <circle stroke="#d8d8d8" stroke-width="10" cx="50%" cy="50%" r="95" fill="white" />
  <path id="shapePath2" fill="#67bfd7" d="M92.4031,107.2 L92.4031,106 L97.4031,106 C99.3365,102.2 101.453,98.7 103.753,95.5 C106.053,92.3 108.636,89.45 111.503,86.95 C114.37,84.45 117.553,82.3333 121.053,80.6 C124.553,78.8667 128.47,77.5667 132.803,76.7 L132.803,76.5 C128.403,76.5 124.053,76.4333 119.753,76.3 C115.453,76.1667 111.103,76.1 106.703,76.1 C103.57,76.1 100.136,76.2167 96.4031,76.45 C92.6698,76.6833 88.9031,77.1 85.1031,77.7 C81.3031,78.3 77.6531,79.1 74.1531,80.1 C70.6531,81.1 67.5365,82.3667 64.8031,83.9 C62.0698,85.4333 59.8865,87.25 58.2531,89.35 C56.6198,91.45 55.8031,93.9333 55.8031,96.8 C55.8031,98.7333 56.3365,100.4 57.4031,101.8 C58.4698,103.2 59.8031,104.35 61.4031,105.25 C63.0031,106.15 64.7531,106.8 66.6531,107.2 C68.5531,107.6 70.3365,107.8 72.0031,107.8 C75.4698,107.8 78.6698,107.367 81.6031,106.5 C84.5365,105.633 87.0531,104.35 89.1531,102.65 C91.2531,100.95 92.8865,98.8833 94.0531,96.45 C95.2198,94.0167 95.8031,91.2 95.8031,88 C95.8031,87.2667 95.8031,86.7 95.8031,86.3 C95.8031,85.9 95.7698,85.5333 95.7031,85.2 L96.9031,85.2 C96.9031,85.7333 96.9198,86.2333 96.9531,86.7 C96.9865,87.1667 97.0031,87.6333 97.0031,88.1 C97.0031,91.5 96.3198,94.6833 94.9531,97.65 C93.5865,100.617 91.7365,103.183 89.4031,105.35 C87.0698,107.517 84.3865,109.233 81.3531,110.5 C78.3198,111.767 75.1031,112.4 71.7031,112.4 C69.6365,112.4 67.5865,112.083 65.5531,111.45 C63.5198,110.817 61.6865,109.9 60.0531,108.7 C58.4198,107.5 57.1031,106 56.1031,104.2 C55.1031,102.4 54.6031,100.367 54.6031,98.1 C54.6031,94.3 55.5198,91.15 57.3531,88.65 C59.1865,86.15 61.4698,83.9667 64.2031,82.1 C68.2698,79.3 72.5865,77.05 77.1531,75.35 C81.7198,73.65 86.4031,72.35 91.2031,71.45 C96.0031,70.55 100.853,69.95 105.753,69.65 C110.653,69.35 115.403,69.2 120.003,69.2 C122.736,69.2 125.57,69.2667 128.503,69.4 C131.436,69.5333 134.253,69.6833 136.953,69.85 C139.653,70.0167 142.12,70.1667 144.353,70.3 C146.586,70.4333 148.403,70.5333 149.803,70.6 C151.603,70.6667 152.886,70.9667 153.653,71.5 C154.42,72.0333 154.803,72.9667 154.803,74.3 C154.803,75.4333 154.153,76.3333 152.853,77 C151.553,77.6667 149.47,78 146.603,78 C144.536,78 142.486,77.9167 140.453,77.75 C138.42,77.5833 136.336,77.5 134.203,77.5 C132.136,77.5 130.17,77.9833 128.303,78.95 C126.436,79.9167 124.636,81.2 122.903,82.8 C121.17,84.4 119.553,86.2167 118.053,88.25 C116.553,90.2833 115.153,92.35 113.853,94.45 C112.553,96.55 111.37,98.6167 110.303,100.65 C109.236,102.683 108.303,104.467 107.503,106 C108.77,105.867 110.12,105.783 111.553,105.75 C112.986,105.717 114.353,105.533 115.653,105.2 C116.953,104.867 118.136,104.333 119.203,103.6 C120.27,102.867 121.07,101.8 121.603,100.4 C123.403,100.267 125.22,100.167 127.053,100.1 C128.886,100.033 130.703,100 132.503,100 C130.303,101.667 128.086,103.383 125.853,105.15 C123.62,106.917 121.503,108.8 119.503,110.8 C117.503,112.8 115.686,114.933 114.053,117.2 C112.42,119.467 111.07,121.9 110.003,124.5 L109.203,124.5 C110.27,121.233 111.536,118.083 113.003,115.05 C114.47,112.017 116.103,109.1 117.903,106.3 C117.236,106.433 116.42,106.55 115.453,106.65 C114.486,106.75 113.486,106.833 112.453,106.9 C111.42,106.967 110.42,107.033 109.453,107.1 C108.486,107.167 107.67,107.2 107.003,107.2 C104.336,111.533 101.586,115.733 98.7531,119.8 C95.9198,123.867 92.7531,127.45 89.2531,130.55 C85.7531,133.65 81.8031,136.133 77.4031,138 C73.0031,139.867 67.9031,140.8 62.1031,140.8 C60.1031,140.8 57.9198,140.55 55.5531,140.05 C53.1865,139.55 50.9865,138.767 48.9531,137.7 C46.9198,136.633 45.2198,135.233 43.8531,133.5 C42.4865,131.767 41.8031,129.667 41.8031,127.2 C41.8031,125.333 42.3698,123.683 43.5031,122.25 C44.6365,120.817 46.1031,120.1 47.9031,120.1 C49.3698,120.1 50.6031,120.517 51.6031,121.35 C52.6031,122.183 53.1031,123.367 53.1031,124.9 C53.1031,125.9 52.8031,126.85 52.2031,127.75 C51.6031,128.65 50.6698,129.167 49.4031,129.3 C49.5365,131.167 49.9531,132.767 50.6531,134.1 C51.3531,135.433 52.2865,136.5 53.4531,137.3 C54.6198,138.1 55.9698,138.683 57.5031,139.05 C59.0365,139.417 60.6365,139.6 62.3031,139.6 C66.7698,139.6 70.7031,138.517 74.1031,136.35 C77.5031,134.183 80.5531,131.483 83.2531,128.25 C85.9531,125.017 88.3865,121.5 90.5531,117.7 C92.7198,113.9 94.8031,110.4 96.8031,107.2 L92.4031,107.2 Z" />
</svg>