<?xml version="1.0"?>
<svg version="1.1" xmlns="http://www.w3.org/2000/svg"
     viewBox="54.5078 134.4 530.9842 211.2">
  <path fill="white" d="M204.808,246.3 L205.408,242.7 L218.308,242.7 C224.108,233.7 230.058,224.6 236.158,215.4 C242.258,206.2 248.958,197.55 256.258,189.45 C263.558,181.35 271.658,174.15 280.558,167.85 C289.458,161.55 299.408,157 310.408,154.2 L310.408,153.6 C305.208,153.6 299.908,153.55 294.508,153.45 C289.108,153.35 283.258,153.2 276.958,153 C270.658,152.8 263.658,152.65 255.958,152.55 C248.258,152.45 239.508,152.4 229.708,152.4 C209.908,152.4 191.908,154.1 175.708,157.5 C159.508,160.9 145.658,165.7 134.158,171.9 C122.658,178.1 113.708,185.35 107.308,193.65 C100.908,201.95 97.5078,211.1 97.1078,221.1 C96.7078,230.7 100.158,238.35 107.458,244.05 C114.758,249.75 124.708,252.6 137.308,252.6 C145.508,252.6 153.908,251.25 162.508,248.55 C171.108,245.85 178.908,242.05 185.908,237.15 C192.908,232.25 198.658,226.4 203.158,219.6 C207.658,212.8 209.908,205.4 209.908,197.4 C209.908,194 209.608,190.95 209.008,188.25 C208.408,185.55 207.808,183.1 207.208,180.9 L210.208,180.3 C212.408,185.9 213.508,191.7 213.508,197.7 C213.508,204.9 211.408,212 207.208,219 C203.008,226 197.408,232.25 190.408,237.75 C183.408,243.25 175.258,247.7 165.958,251.1 C156.658,254.5 147.008,256.2 137.008,256.2 C123.608,256.2 113.008,253.2 105.208,247.2 C97.4078,241.2 93.5078,232.8 93.5078,222 C93.5078,211 97.2578,200.45 104.758,190.35 C112.258,180.25 123.108,171.3 137.308,163.5 C151.508,155.7 168.958,149.5 189.658,144.9 C210.358,140.3 233.908,138 260.308,138 C277.908,138 293.258,138.2 306.358,138.6 C319.458,139 329.208,139.2 335.608,139.2 C340.208,139.2 344.358,139 348.058,138.6 C351.758,138.2 355.108,138 358.108,138 C362.108,138 365.508,138.25 368.308,138.75 C371.108,139.25 372.508,141 372.508,144 C372.508,146.6 372.008,148.6 371.008,150 C370.008,151.4 367.558,152.4 363.658,153 C359.758,153.6 354.008,153.95 346.408,154.05 C338.808,154.15 328.508,154.2 315.508,154.2 C303.908,158.4 294.208,163.95 286.408,170.85 C278.608,177.75 271.858,185.25 266.158,193.35 C260.458,201.45 255.358,209.75 250.858,218.25 C246.358,226.75 241.408,234.7 236.008,242.1 C238.408,241.7 241.458,241.4 245.158,241.2 C248.858,241 252.508,240.7 256.108,240.3 C259.708,239.9 263.008,239.4 266.008,238.8 C269.008,238.2 270.908,237.3 271.708,236.1 C273.508,233.7 275.658,231.3 278.158,228.9 C280.658,226.5 284.008,225.3 288.208,225.3 C290.808,225.3 293.308,225.7 295.708,226.5 C287.508,233.5 279.808,241.05 272.608,249.15 C265.408,257.25 258.908,265.9 253.108,275.1 L251.308,274.2 C253.308,268.6 255.708,263.25 258.508,258.15 C261.308,253.05 264.108,247.9 266.908,242.7 C264.308,243.1 261.458,243.45 258.358,243.75 C255.258,244.05 252.208,244.35 249.208,244.65 C246.208,244.95 243.408,245.2 240.808,245.4 C238.208,245.6 236.108,245.8 234.508,246 C227.308,258 219.558,269.9 211.258,281.7 C202.958,293.5 193.708,304.15 183.508,313.65 C173.308,323.15 161.908,330.85 149.308,336.75 C136.708,342.65 122.508,345.6 106.708,345.6 C101.308,345.6 95.5578,344.9 89.4578,343.5 C83.3578,342.1 77.7078,339.9 72.5078,336.9 C67.3078,333.9 63.0078,330.1 59.6078,325.5 C56.2078,320.9 54.5078,315.4 54.5078,309 C54.5078,305 55.6578,301.3 57.9578,297.9 C60.2578,294.5 63.6078,292.8 68.0078,292.8 C71.2078,292.8 73.6578,293.8 75.3578,295.8 C77.0578,297.8 77.9078,300.3 77.9078,303.3 C77.9078,306.1 77.2078,308.55 75.8078,310.65 C74.4078,312.75 72.3078,313.8 69.5078,313.8 C68.3078,313.8 67.3078,313.7 66.5078,313.5 C66.5078,314.1 66.7578,315.95 67.2578,319.05 C67.7578,322.15 69.3078,325.4 71.9078,328.8 C74.5078,332.2 78.6578,335.25 84.3578,337.95 C90.0578,340.65 98.0078,342 108.208,342 C121.208,342 133.108,338.75 143.908,332.25 C154.708,325.75 164.508,317.7 173.308,308.1 C182.108,298.5 190.058,288.1 197.158,276.9 C204.258,265.7 210.708,255.5 216.508,246.3 L204.808,246.3 M389.298,211.8 L388.698,211.2 C384.498,214 379.898,216.75 374.898,219.45 C369.898,222.15 364.648,224.7 359.148,227.1 C353.648,229.5 348.098,231.7 342.498,233.7 C336.898,235.7 331.498,237.4 326.298,238.8 L325.098,235.5 C343.298,231.3 360.598,224.45 376.998,214.95 C393.398,205.45 408.698,195.2 422.898,184.2 L424.098,185.4 C417.498,195.4 409.698,207.2 400.698,220.8 C391.698,234.4 382.598,248.35 373.398,262.65 C364.198,276.95 355.398,290.95 346.998,304.65 C338.598,318.35 331.698,330.4 326.298,340.8 L301.698,345.6 L389.298,211.8 M516.798,134.4 C498.998,161.4 483.498,184.75 470.298,204.45 C457.098,224.15 445.798,241 436.398,255 C426.998,269 419.298,280.55 413.298,289.65 C407.298,298.75 402.598,306.2 399.198,312 C395.798,317.8 393.448,322.4 392.148,325.8 C390.848,329.2 390.198,332.1 390.198,334.5 C390.198,339.5 392.398,342 396.798,342 C401.798,342 407.648,339.95 414.348,335.85 C421.048,331.75 428.248,326.15 435.948,319.05 C443.648,311.95 451.498,303.65 459.498,294.15 C467.498,284.65 475.298,274.5 482.898,263.7 L486.198,264.9 C478.998,275.1 471.398,284.95 463.398,294.45 C455.398,303.95 447.698,312.2 440.298,319.2 C430.498,328.4 422.048,335.1 414.948,339.3 C407.848,343.5 401.398,345.6 395.598,345.6 C389.398,345.6 384.948,344.2 382.248,341.4 C379.548,338.6 378.198,334.9 378.198,330.3 C378.198,326.1 378.948,321.75 380.448,317.25 C381.948,312.75 384.498,307.35 388.098,301.05 C391.698,294.75 396.448,287.1 402.348,278.1 C408.248,269.1 415.548,258.05 424.248,244.95 C432.948,231.85 443.198,216.25 454.998,198.15 C466.798,180.05 480.398,158.8 495.798,134.4 L516.798,134.4 M536.892,249.6 C536.892,246.8 536.142,244.7 534.642,243.3 C533.142,241.9 531.292,241.2 529.092,241.2 C524.892,241.2 520.342,242.85 515.442,246.15 C510.542,249.45 505.692,253.55 500.892,258.45 C496.092,263.35 491.742,268.6 487.842,274.2 C483.942,279.8 480.992,284.8 478.992,289.2 C483.392,288.4 488.892,286.85 495.492,284.55 C502.092,282.25 508.442,279.4 514.542,276 C520.642,272.6 525.892,268.65 530.292,264.15 C534.692,259.65 536.892,254.8 536.892,249.6 M585.492,265.5 C582.492,270.5 578.742,276 574.242,282 C569.742,288 564.642,293.95 558.942,299.85 C553.242,305.75 547.142,311.45 540.642,316.95 C534.142,322.45 527.392,327.35 520.392,331.65 C513.392,335.95 506.342,339.35 499.242,341.85 C492.142,344.35 485.192,345.6 478.392,345.6 C469.992,345.6 463.492,343.45 458.892,339.15 C454.292,334.85 451.992,328.7 451.992,320.7 C451.992,311.9 454.642,302.65 459.942,292.95 C465.242,283.25 471.992,274.3 480.192,266.1 C488.392,257.9 497.392,251.1 507.192,245.7 C516.992,240.3 526.392,237.6 535.392,237.6 C540.392,237.6 544.292,238.65 547.092,240.75 C549.892,242.85 551.292,245.9 551.292,249.9 C551.292,254.7 548.692,259.35 543.492,263.85 C538.292,268.35 531.942,272.45 524.442,276.15 C516.942,279.85 508.892,283.15 500.292,286.05 C491.692,288.95 484.092,291.1 477.492,292.5 C475.292,296.5 473.492,301 472.092,306 C470.692,311 469.992,316 469.992,321 C469.992,323.4 470.242,325.75 470.742,328.05 C471.242,330.35 472.042,332.45 473.142,334.35 C474.242,336.25 475.742,337.8 477.642,339 C479.542,340.2 481.892,340.8 484.692,340.8 C491.292,340.8 499.042,338.65 507.942,334.35 C516.842,330.05 525.892,324.3 535.092,317.1 C544.292,309.9 553.092,301.7 561.492,292.5 C569.892,283.3 577.092,273.8 583.092,264 L585.492,265.5 Z" />
</svg>
